<svg width="68" height="72" viewBox="0 0 68 72" fill="none" xmlns="http://www.w3.org/2000/svg">
<g clip-path="url(#clip0_40_6700)">
<path d="M5.96521 36.3215V32.0952L16.9062 36.3215H5.96521Z" fill="#71BE44"/>
<path d="M16.9061 36.3215L16.9097 32.0952L27.8506 36.3215H16.9061Z" fill="#71BE44"/>
<path d="M27.8506 36.3215V32.0952L38.7951 36.3215H27.8506Z" fill="#71BE44"/>
<path d="M38.7917 36.3215H5.96521V63.3417H38.7917V36.3215Z" fill="#71BE44"/>
<path d="M49.425 17.4829H42.7225V45.7252H49.425V17.4829Z" fill="#71BE44"/>
<path d="M50.1286 45.7251H42.0192V63.3417H50.1286V45.7251Z" fill="#71BE44"/>
<path d="M48.3257 0.841797H43.8185V17.4829H48.3257V0.841797Z" fill="#71BE44"/>
<path d="M51.9844 63.3417H51.3092V46.3696H50.6057V16.6693H49.5063V0.841797H50.1815V15.9966H51.2809V45.6969H51.9844V63.3417Z" fill="#71BE44"/>
<path d="M53.2747 56.0125H38.8729V57.1359H53.2747V56.0125Z" fill="#71BE44"/>
<path d="M53.2747 41.1255H38.8729V42.249H53.2747V41.1255Z" fill="#71BE44"/>
<path d="M53.2747 26.2383H38.8729V27.3618H53.2747V26.2383Z" fill="#71BE44"/>
<path d="M53.2747 11.3511H38.8729V12.4746H53.2747V11.3511Z" fill="#71BE44"/>
<path d="M39.3784 11.3511H38.7952V63.3416H39.3784V11.3511Z" fill="#71BE44"/>
<path d="M53.4869 11.3511H52.9036V63.3416H53.4869V11.3511Z" fill="#71BE44"/>
<path d="M62.7663 63.3418H4.90112V65.138H62.7663V63.3418Z" fill="#71BE44"/>
<path d="M49.8422 2.2998H43.8185V2.91614H49.8422V2.2998Z" fill="#71BE44"/>
<path d="M50.7436 17.4829H44.7198V18.0992H50.7436V17.4829Z" fill="#71BE44"/>
<path d="M51.6451 45.7251H45.6213V46.3414H51.6451V45.7251Z" fill="#71BE44"/>
<path d="M48.3257 0H43.8185V0.616335H48.3257V0Z" fill="#71BE44"/>
<path d="M47.8767 0.464844H44.2675V1.08118H47.8767V0.464844Z" fill="#71BE44"/>
<path d="M39.6188 56.2451L39.1345 55.7767L52.5641 42.1081V41.2629L39.0391 27.4992V26.101L39.1345 26.0024L52.6596 12.2388L53.1439 12.7107L39.7143 26.3757V27.2245L53.2393 40.9882V42.3829L53.1439 42.4815L39.6188 56.2451Z" fill="#71BE44"/>
<path d="M52.6596 56.2451L39.0391 42.3829V40.9882L39.1345 40.8896L52.5641 27.2245V26.3757L39.1345 12.7107L39.6188 12.2388L53.2393 26.101V27.4992L53.1439 27.5978L39.7143 41.2629V42.1081L53.1439 55.7767L52.6596 56.2451Z" fill="#71BE44"/>
<path d="M42.0191 52.0081H38.8729V52.568H42.0191V52.0081Z" fill="#71BE44"/>
<path d="M42.0191 53.4663H38.8729V54.0263H42.0191V53.4663Z" fill="#71BE44"/>
<path d="M58.6339 58.9287C58.6339 58.9287 57.994 58.5554 57.5345 58.5554C57.0749 58.5554 56.4351 58.9287 56.4351 58.9287V63.3417H58.6339V58.9287Z" fill="#71BE44"/>
<path d="M60.829 58.9287C60.829 58.9287 60.1927 58.5554 59.7296 58.5554C59.2666 58.5554 58.6302 58.9287 58.6302 58.9287V63.3417H60.829V58.9287Z" fill="#71BE44"/>
<path d="M56.435 58.9287C56.435 58.9287 55.7987 58.5554 55.3356 58.5554C54.8725 58.5554 54.2362 58.9287 54.2362 58.9287V63.3417H56.435V58.9287Z" fill="#71BE44"/>
<path d="M55.4488 58.5553H55.2225V57.8051L54.8655 57.4494H50.1285V57.2275H54.9574L55.4488 57.7136V58.5553Z" fill="#71BE44"/>
<path d="M57.6476 58.5554H57.4214V58.2666L57.3083 58.1539H55.3357V57.9285H57.4002L57.6476 58.1715V58.5554Z" fill="#71BE44"/>
<path d="M59.8039 58.5554H59.5776V58.2666L59.4645 58.1539H57.1632V57.9285H59.56L59.8039 58.1715V58.5554Z" fill="#71BE44"/>
<path d="M51.0265 57.3369H50.4927V63.3418H51.0265V57.3369Z" fill="#71BE44"/>
<path d="M61.6952 62.5281H50.7437V63.3416H61.6952V62.5281Z" fill="#71BE44"/>
<path d="M41.3686 63.3418H40.9161V59.0697L41.4429 58.5449H42.0191V58.9957H41.6302L41.3686 59.2564V63.3418Z" fill="#71BE44"/>
<path d="M39.7991 63.3418H39.3501V60.9997L40.0925 60.2566H42.0191V60.7039H40.2798L39.7991 61.1829V63.3418Z" fill="#71BE44"/>
<path d="M42.0191 62.7888H41.5631L40.3541 61.5843V60.4819H40.8066V61.3976L41.7505 62.338H42.0191V62.7888Z" fill="#71BE44"/>
</g>
<path d="M0.000144958 71.9363L67.5095 71.9363L67.5095 64.9798L0.000145567 64.9798L0.000144958 71.9363Z" fill="#71BE44"/>
<defs>
<clipPath id="clip0_40_6700">
<rect width="57.8652" height="65.1378" fill="white" transform="translate(4.90112)"/>
</clipPath>
</defs>
</svg>
