<svg width="68" height="72" viewBox="0 0 68 72" fill="none" xmlns="http://www.w3.org/2000/svg">
<path d="M2.28882e-05 71.936L67.5094 71.936L67.5094 64.9796L2.34963e-05 64.9796L2.28882e-05 71.936Z" fill="#71BE44"/>
<path d="M49.4656 30.4114C49.4535 30.2857 49.5453 30.174 49.6705 30.1615C49.7957 30.1494 49.9074 30.2407 49.9199 30.3664C50.5667 36.9333 51.5926 41.7241 52.9797 45.3662C54.3598 48.9906 56.1429 51.4737 58.2193 53.4412C58.3107 53.5284 58.2685 53.6725 58.1818 53.7643C58.0951 53.8557 57.95 53.8594 57.8591 53.7722C55.7349 51.7602 53.9593 49.2238 52.5527 45.5294C51.1522 41.8526 50.117 37.0237 49.4656 30.4114Z" fill="#71BE44"/>
<path d="M25.8228 25.7273V42.6492C25.8228 42.8787 25.4742 42.8787 25.4742 42.6492V24.7945C23.5716 19.5758 22.0357 13.1479 21.0941 5.63157C21.0375 5.17493 21.732 5.0887 21.789 5.54673C23.5563 19.6513 27.4116 29.8594 31.8441 35.3734C33.7101 37.6952 35.4546 38.9854 37.3957 39.6784C39.2274 40.2811 41.0535 40.072 42.7721 38.9983C45.0266 37.4643 47.1086 34.5102 48.8026 30.2298C48.9695 29.7963 49.6172 30.0485 49.4563 30.476C48.6144 32.7017 47.6724 34.5506 46.6571 36.0359V49.3932C46.6571 49.6236 46.307 49.6236 46.307 49.3932V36.5297C45.798 37.2218 45.2714 37.8254 44.7303 38.3433V48.6709C44.7303 48.9013 44.3803 48.9013 44.3803 48.6709V38.6641C43.9816 39.0141 43.576 39.3187 43.1638 39.5778V48.9111C43.1638 49.1405 42.8152 49.141 42.8152 48.9111V39.7851C41.8713 40.3173 40.8991 40.6172 39.9131 40.6937V47.1053C39.9131 47.3357 39.563 47.3357 39.563 47.1053V40.7113C38.7735 40.7299 37.9757 40.6056 37.1769 40.3428C37.0856 40.3127 36.9938 40.2802 36.9024 40.2464V45.7804C36.9024 46.0108 36.5524 46.0108 36.5524 45.7804V40.1082C35.29 39.5778 34.0323 38.7007 32.8084 37.4912V45.1782C32.8084 45.4086 32.4584 45.4086 32.4584 45.1782V37.1356C32.0685 36.7281 31.6818 36.2863 31.2998 35.8111C30.7491 35.1259 30.2071 34.3693 29.6767 33.5441V43.9737C29.6767 44.2032 29.3281 44.2032 29.3281 43.9737V32.9887C28.0769 30.9516 26.8961 28.5247 25.8228 25.7273Z" fill="#71BE44"/>
<path d="M22.3805 38.7764H20.222V64.8215H22.3805V38.7764Z" fill="#71BE44"/>
<path d="M56.3297 29.0762C56.3181 28.9547 56.4057 28.8606 56.5253 28.8657C56.6454 28.8708 56.752 28.9737 56.7636 29.0952C57.3816 35.4572 58.3621 40.1734 59.6866 43.8423C61.0051 47.4932 62.6648 50.1023 64.6486 52.265C64.7362 52.3605 64.7394 52.4991 64.6564 52.5747C64.5735 52.6503 64.4353 52.6336 64.3482 52.5381C62.3185 50.3262 60.6227 47.6615 59.2787 43.9397C57.9407 40.236 56.9519 35.4817 56.3297 29.0762Z" fill="#71BE44"/>
<path fill-rule="evenodd" clip-rule="evenodd" d="M56.8676 28.0328L56.5004 26.947L56.1332 28.1028L55.8652 28.1283V28.5961C55.8652 29.138 55.4216 29.6234 54.8796 29.6753L52.7582 29.8774L50.6363 30.0796C50.0943 30.131 49.6507 29.7305 49.6507 29.1885V28.7208L49.4087 28.7439L49.0415 27.6582L48.6743 28.8139L48.443 28.8357V54.7274L49.6511 54.612V46.1531C49.6511 45.6116 50.0943 45.1258 50.6368 45.0738L52.7587 44.8717L54.8801 44.6691C55.422 44.6176 55.8657 45.0187 55.8657 45.5606V54.0195L57.0739 53.904V28.0133L56.8676 28.0328ZM55.8652 41.8912C55.8652 42.4327 55.4216 42.9186 54.8796 42.9705L52.7582 43.1731L50.6363 43.3752C50.0943 43.4267 49.6507 43.0256 49.6507 42.4837V39.506C49.6507 38.964 50.0939 38.4786 50.6363 38.4267L52.7582 38.2246L54.8796 38.022C55.4216 37.9705 55.8652 38.3715 55.8652 38.9135V41.8912ZM55.8652 35.2436C55.8652 35.7856 55.4216 36.271 54.8796 36.3229L52.7582 36.5255L50.6363 36.7276C50.0943 36.7791 49.6507 36.3785 49.6507 35.8366V32.8589C49.6507 32.3169 50.0939 31.8311 50.6363 31.7796L52.7582 31.5775L54.8796 31.3749C55.4216 31.3234 55.8652 31.7244 55.8652 32.2664V35.2436Z" fill="#71BE44"/>
<path d="M49.6511 47.1462H48.443V64.821H49.6511V47.1462Z" fill="#71BE44"/>
<path fill-rule="evenodd" clip-rule="evenodd" d="M35.2728 1.93971L34.6163 0L33.9603 2.06488L33.4814 2.11031V2.94619C33.4814 3.91419 32.6896 4.78158 31.7216 4.8743L27.9312 5.23545L24.1408 5.59659C23.1728 5.68885 22.3805 4.97259 22.3805 4.00412V3.16825L21.9475 3.20951L21.2915 1.2698L20.6355 3.33468L20.222 3.37409V49.6285L22.3805 49.4227V34.3116C22.3805 33.3436 23.1723 32.4757 24.1408 32.3835L27.9312 32.0223L31.7216 31.6612C32.6896 31.5689 33.4814 32.2857 33.4814 33.2532V48.3647L35.64 48.1589V1.90494L35.2728 1.93971ZM33.4814 26.6974C33.4814 27.6654 32.6896 28.5333 31.7216 28.6255L27.9312 28.9867L24.1408 29.3478C23.1728 29.4401 22.3805 28.7238 22.3805 27.7553V22.4364C22.3805 21.4684 23.1723 20.601 24.1408 20.5083L27.9312 20.1472L31.7216 19.786C32.6896 19.6938 33.4814 20.41 33.4814 21.3785V26.6974ZM33.4814 14.8218C33.4814 15.7898 32.6896 16.6572 31.7216 16.7499L27.9312 17.1111L24.1408 17.4722C23.1728 17.5645 22.3805 16.8477 22.3805 15.8797V10.5604C22.3805 9.59237 23.1723 8.72498 24.1408 8.63272L27.9312 8.27111L31.7216 7.90997C32.6896 7.81771 33.4814 8.53444 33.4814 9.50244V14.8218Z" fill="#71BE44"/>
<path d="M54.932 35.7775V52.4379C54.932 52.5343 54.8545 52.6117 54.7586 52.6108C54.6631 52.6099 54.6566 52.5306 54.6566 52.4342V36.5359C54.1216 37.6458 53.4739 38.5744 52.8652 39.3249V51.5223C52.8652 51.6187 52.7873 51.6966 52.6918 51.6957C52.5959 51.6947 52.5185 51.6155 52.5185 51.5186V39.7297C52.2282 40.0495 51.9311 40.3305 51.6288 40.572C51.2612 40.8659 50.8861 41.1033 50.5036 41.286V50.6034C50.5036 50.7003 50.4262 50.7777 50.3303 50.7768C50.2348 50.7759 50.1569 50.6966 50.1569 50.6002V41.4362C49.4054 41.7273 48.6316 41.8084 47.8458 41.6842V49.5835C47.8458 49.6799 47.7684 49.7569 47.6729 49.756C47.5774 49.755 47.5004 49.6762 47.5004 49.5803V41.6165C47.36 41.5836 47.2195 41.5447 47.0786 41.4988C46.5144 41.3147 45.9483 41.025 45.3855 40.6304V48.6642C45.3855 48.7606 45.3081 48.8376 45.213 48.8366C45.1175 48.8357 45.0401 48.7569 45.0401 48.6605V40.3745C44.2019 39.7213 43.3725 38.8358 42.5668 37.7209C42.4296 37.5308 42.2923 37.3328 42.156 37.1284V47.552C42.156 47.6484 42.0782 47.7263 41.9827 47.7254C41.8867 47.7245 41.8093 47.6452 41.8093 47.5488V36.5925C40.5511 34.5841 39.3545 31.9819 38.2799 28.803V45.6104C38.2799 45.7069 38.2024 45.7843 38.1074 45.7829C38.0119 45.782 37.9345 45.7032 37.9345 45.6067V27.7474C36.0305 21.7391 34.5544 13.8273 33.878 4.10653C33.8622 3.86546 34.0426 3.65916 34.2813 3.64571C34.5196 3.63227 34.7259 3.81632 34.7421 4.05693C35.8919 20.5876 39.3475 31.7886 43.265 37.2114C44.6076 39.0699 45.9905 40.228 47.3363 40.6666C48.627 41.0871 49.9023 40.833 51.0873 39.8859C53.1299 38.2535 54.9143 34.6296 56.1026 28.9226C56.1512 28.6871 56.3803 28.5379 56.6139 28.5893C56.8476 28.6408 56.9982 28.8735 56.9496 29.109C56.3983 31.7539 55.715 33.9736 54.932 35.7775Z" fill="#71BE44"/>
<path d="M3.09919 45.8495C2.96985 45.8208 2.70513 45.4935 2.70513 45.3614H2.7042C2.7042 45.041 2.64718 44.4008 2.77653 44.2733C3.16873 43.8876 2.99952 43.9492 3.80433 43.9803V43.9794C4.14183 43.9854 4.06534 44.0127 4.36668 43.9117L4.3792 43.9075C4.47702 43.8746 4.60497 43.8315 4.78995 43.7731C4.51549 43.6711 3.01064 43.1727 2.90912 43.0206C2.82381 42.8936 2.70513 42.7722 2.70513 42.6512H2.7042C2.7042 42.2548 2.6342 41.1384 2.77977 40.9929C2.91746 40.8556 3.01574 40.6934 3.16502 40.6859V40.685L24.9631 39.5928L25.1189 39.6243L25.1193 39.6238L62.1101 54.3534C62.225 54.3993 62.4346 54.7345 62.4253 54.8578H62.4262C62.3827 55.3863 62.4411 55.3636 62.2144 55.5689C62.2811 55.7456 62.3507 55.7618 62.3405 55.8907C62.3029 56.3483 62.3572 56.2323 61.9928 56.5634C61.9455 56.606 61.8857 56.6269 61.8263 56.6259V56.6269L53.4602 56.4679L3.09919 45.8495Z" fill="#71BE44"/>
<path fill-rule="evenodd" clip-rule="evenodd" d="M61.8945 55.2777L61.4402 55.2698L61.6303 55.7715L60.6396 55.7543L61.8241 56.1349L53.1218 55.9852L3.19659 45.371V44.4559C4.52852 44.4786 3.93418 44.5542 5.03941 44.2139L6.35604 43.8333L3.19659 42.6604V41.1778L24.9423 40.0823V41.5644L28.1017 42.7378L26.589 43.1824L29.1986 43.2273L29.1963 43.5241L30.041 43.5389L30.3219 43.8444L31.1202 43.8583L35.2662 45.3975L34.4007 45.7581L36.1267 45.7878L36.1216 46.0052L36.7437 46.0159L36.9176 46.225L37.5239 46.2352L40.7056 47.416L40.153 47.6955L41.3436 47.7159L41.3371 47.8926L41.8461 47.9014L41.9615 48.0562L42.4534 48.065L44.9624 48.9959L44.5855 49.224L45.4673 49.2393L45.4613 49.3761L45.8553 49.383L45.9392 49.5064L46.3551 49.5138L48.3653 50.2597L48.0857 50.4549L48.7885 50.4669L48.7825 50.5787L49.1061 50.5842L49.1636 50.6756L49.5029 50.6816L51.1696 51.3L50.961 51.4632L51.5117 51.473L51.5062 51.568L51.7815 51.5726L51.8233 51.6459L52.1153 51.651L53.5085 52.1684L53.3471 52.3116L53.8024 52.3195L53.7977 52.3978L54.0244 52.4016L54.0564 52.4614C54.5525 52.4702 55.0291 52.7326 55.4931 52.9046L55.3643 53.0297L55.7426 53.0362L55.7379 53.1048L55.9382 53.1081L55.9609 53.154C56.3883 53.1614 56.8005 53.389 57.2001 53.5374L57.0953 53.6472L57.4124 53.6523L57.4083 53.7108L57.5789 53.7135L57.597 53.7525C57.9725 53.759 58.3313 53.956 58.6822 54.0863L58.5946 54.1846L58.8686 54.1892L58.8649 54.2397L59.0128 54.242L59.0267 54.2745C59.3545 54.2801 59.6688 54.4516 59.9757 54.5652L59.9024 54.6537L60.1398 54.6579L60.1366 54.7033L60.2696 54.7052L60.2803 54.7321C60.5719 54.7372 60.8519 54.8897 61.1254 54.9908L61.0638 55.07L61.2673 55.0738L61.264 55.1136L61.3818 55.1159L61.3901 55.1377C61.6085 55.1433 61.6409 55.1836 61.8945 55.2777Z" fill="#71BE44"/>
<path fill-rule="evenodd" clip-rule="evenodd" d="M61.9328 54.8114L61.4845 54.633L61.0928 54.4772L60.7803 54.3529L60.4938 54.2384L60.3904 54.1976L59.9481 54.0215L59.5888 53.8782L59.2699 53.7512L59.1526 53.7044L58.6505 53.5046L58.2384 53.3404L57.874 53.1953L57.7428 53.1429L57.1661 52.913L56.6904 52.7239L56.2769 52.5593L56.1336 52.5023L55.4618 52.2348L54.9037 52.0127L54.4285 51.8235L54.2607 51.7568L53.4735 51.4434L52.8142 51.181L52.2593 50.9603L52.0669 50.8834L51.1304 50.5106L50.3381 50.1954L49.6849 49.9353L49.461 49.8463L48.3312 49.3966L47.3613 49.0104L46.5732 48.6966L46.2997 48.5876L44.9094 48.0341L43.7082 47.5561L42.736 47.169L42.4115 47.0401L40.6572 46.3415L39.1153 45.7272L37.9094 45.2469L37.501 45.0846L35.2321 44.1815L33.1932 43.3698L31.6147 42.7411L31.0662 42.5228L28.0111 41.3063L24.9416 40.0842V41.5664L28.0111 42.7064L28.101 42.7397L28.0111 42.7657L26.7844 43.1204L25.484 43.5459L24.9416 43.3624V44.277L28.0111 45.264L31.0662 46.2464L31.6147 46.4226L33.1932 46.9302L35.2321 47.5862L37.501 48.3155L37.9094 48.4467L39.1153 48.8342L40.6572 49.3303L42.4115 49.894L42.736 49.9988L43.7082 50.3113L44.9094 50.697L46.2997 51.1439L46.5732 51.232L47.3613 51.4851L48.3312 51.7971L49.461 52.1606L49.6849 52.2324L50.3381 52.4424L51.1304 52.697L52.0669 52.9978L52.2593 53.0595L52.8142 53.238L53.4735 53.4499L54.2607 53.703L54.4285 53.7568L54.9037 53.9097L55.4618 54.0892L56.1336 54.3052L56.2769 54.3511L56.6904 54.4841L57.1661 54.6371L57.7428 54.8226L57.874 54.8648L58.2384 54.9816L58.6505 55.1142L59.1526 55.2755L59.2699 55.3131L59.5888 55.416L59.9481 55.5314L60.3904 55.6733L60.4938 55.7067L60.7803 55.7985L61.0928 55.8991L61.4845 56.0252L61.8239 56.1341L61.848 55.8439L61.7854 55.8226L61.5285 55.1411L61.8943 55.2764L61.9328 54.8114ZM29.1863 44.7967L28.0116 44.3994L26.8238 43.9975L28.0116 43.6122L29.1988 43.2274L29.1863 44.7967ZM31.6151 45.6182L31.0667 45.4328L30.024 45.0805L30.0412 43.539L31.0667 44.653L31.6151 45.2487L32.1093 45.7856L31.6151 45.6182ZM33.1937 46.1523L33.1687 46.1435L31.6151 44.4096L31.1209 43.8579L31.6151 44.0415L33.1937 44.6275L35.2326 45.3846L35.2665 45.3971L35.2326 45.4115L33.3383 46.2014L33.1937 46.1523ZM36.0949 47.1342L35.2326 46.8426L34.3383 46.5399L35.2326 46.1639L36.1269 45.7879L36.0949 47.1342ZM37.9099 47.7476L37.5015 47.6094L36.7078 47.341L36.7444 46.0151L37.5015 46.9242L37.9099 47.4147L38.2952 47.8774L37.9099 47.7476ZM39.1153 48.1555L39.0735 48.1412L37.9099 46.7086L37.5247 46.2348L37.9099 46.3781L39.1157 46.8255L40.6577 47.3975L40.7064 47.4156L40.6577 47.4402L39.1918 48.1815L39.1153 48.1555ZM41.3025 48.8954L40.6572 48.6771L39.9702 48.4444L40.6572 48.0795L41.3443 47.7146L41.3025 48.8954ZM42.7365 49.3804L42.4119 49.2705L41.8051 49.0651L41.8473 47.9005L42.4119 48.6599L42.7365 49.0962L43.0188 49.4759L42.7365 49.3804ZM43.7086 49.7095L43.6609 49.6933L42.7365 48.4457L42.4541 48.0647L42.7365 48.1694L43.7086 48.5301L44.9098 48.9761L44.9631 48.996L44.9098 49.0285L43.7573 49.7262L43.7086 49.7095ZM45.4212 50.289L44.9094 50.1156L44.3507 49.9265L44.9094 49.5825L45.468 49.2385L45.4212 50.289ZM46.5732 50.6789L46.2997 50.5862L45.8087 50.4202L45.856 49.3822L46.2997 50.0326L46.5732 50.4337L46.7907 50.7522L46.5732 50.6789ZM47.3613 50.9279L46.5732 49.8185L46.3563 49.5125L46.5732 49.5932L47.3613 49.8852L48.3312 50.245L48.3664 50.258L48.3312 50.2825L47.3776 50.9497L47.3613 50.9279ZM48.7392 51.4109L48.3312 51.2728L47.8722 51.1175L48.3312 50.7916L48.7902 50.4657L48.7392 51.4109ZM49.6845 51.7313L49.4605 51.6553L49.0563 51.5185L49.1073 50.5834L49.4605 51.1471L49.6845 51.5046L49.8643 51.792L49.6845 51.7313ZM50.3372 51.9515L49.6849 50.9557L49.5046 50.6808L49.6849 50.7475L50.3381 50.99L51.1304 51.2839L51.1712 51.2992L51.1304 51.3312L50.3381 51.9506L50.3372 51.9515ZM51.4628 52.3326L51.13 52.2199L50.7466 52.0901L51.13 51.7809L51.5129 51.4721L51.4628 52.3326ZM52.2588 52.6019L52.0664 52.5366L51.7322 52.4234L51.7827 51.5718L52.066 52.0665L52.2584 52.4026L52.3998 52.6497L52.2588 52.6019ZM52.81 52.7878L52.2588 51.8824L52.117 51.6497L52.2588 51.7021L52.8138 51.9079L53.473 52.1527L53.5101 52.1666L53.473 52.1995L52.8138 52.7841L52.81 52.7878ZM53.7544 53.1077L53.473 53.0122L53.142 52.9L53.473 52.6089L53.8036 52.3177L53.7544 53.1077ZM54.4285 53.3358L54.2607 53.2788L53.9765 53.1828L54.0261 52.4003L54.2607 52.8411L54.4285 53.1569L54.5448 53.3752L54.4285 53.3358ZM54.8879 53.4911L54.4285 52.6719L54.3121 52.4647L54.4285 52.5078L54.9037 52.684L55.4618 52.8912L55.4948 52.9033L55.4618 52.9348L54.9037 53.4758L54.8879 53.4911ZM55.696 53.7642L55.4618 53.6849L55.1795 53.5889L55.4618 53.3117L55.7442 53.0345L55.696 53.7642ZM56.2764 53.9607L56.1331 53.9121L55.8916 53.8305L55.9398 53.1073L56.1331 53.5013L56.2764 53.7929L56.3747 53.9937L56.2764 53.9607ZM56.67 54.0938L56.6297 54.0804L56.2764 53.3581L56.1781 53.1569L56.2764 53.1935L56.6899 53.3469L57.1656 53.5236L57.2017 53.537L57.1656 53.575L56.6899 54.0739L56.67 54.0938ZM57.364 54.3284L57.1656 54.2612L56.9171 54.1772L57.1656 53.9148L57.4141 53.652L57.364 54.3284ZM57.874 54.5008L57.7428 54.4563L57.5304 54.3845L57.5805 53.7136L57.7428 54.0664L57.874 54.3525L57.9546 54.5282L57.874 54.5008ZM58.2129 54.6153L58.1795 54.6042L57.8735 53.9334L57.7928 53.7563L57.8735 53.786L58.2379 53.9213L58.65 54.0743L58.6834 54.0864L58.65 54.1239L58.2379 54.5875L58.2129 54.6153ZM58.8216 54.8216L58.65 54.7637L58.4303 54.6895L58.65 54.4396L58.8698 54.1898L58.8216 54.8216ZM59.2694 54.9728L59.1521 54.9329L58.9657 54.8699L59.014 54.2426L59.1521 54.5634L59.2694 54.836L59.338 54.996L59.2694 54.9728ZM59.5596 55.0711L59.5304 55.0613L59.2694 54.442L59.2008 54.2783L59.2694 54.3038L59.5884 54.422L59.9477 54.5555L59.9764 54.5662L59.9477 54.601L59.5884 55.0363L59.5596 55.0711ZM60.0951 55.2519L59.9481 55.2023L59.7557 55.1369L59.9481 54.8977L60.1405 54.6589L60.0951 55.2519ZM60.4938 55.3868L60.3904 55.3515L60.2281 55.2964L60.2703 54.7062L60.3904 55.0038L60.4938 55.2602L60.5527 55.4058L60.4938 55.3868ZM60.752 55.4739L60.7223 55.4642L60.4938 54.8856L60.4349 54.7363L60.4938 54.7581L60.7803 54.8643L61.0928 54.9802L61.1257 54.9923L61.0928 55.0349L60.7803 55.4378L60.752 55.4739ZM61.2244 55.6343L61.0932 55.5898L60.9184 55.5305L61.0932 55.3029L61.268 55.0757L61.2244 55.6343ZM61.6305 55.7711L61.485 55.7215L61.3394 55.6724L61.383 55.1174L61.485 55.3868L61.6305 55.7711Z" fill="white"/>
<path fill-rule="evenodd" clip-rule="evenodd" d="M24.6728 40.1206L3.22341 41.1883L3.21228 42.6644L24.6617 41.567L24.6728 40.1206Z" fill="white"/>
<path fill-rule="evenodd" clip-rule="evenodd" d="M24.6569 43.3472L3.18896 44.4635L3.21632 45.3407L24.6458 44.215L24.6569 43.3472Z" fill="white"/>
<path d="M57.0734 47.1462H55.8653V64.821H57.0734V47.1462Z" fill="#71BE44"/>
<path d="M35.6402 36.5762H33.4817V64.8211H35.6402V36.5762Z" fill="#71BE44"/>
<path fill-rule="evenodd" clip-rule="evenodd" d="M21.3561 52.5451L34.9628 51.884V53.6842L21.3561 54.3453V52.5451Z" fill="#71BE44"/>
<path fill-rule="evenodd" clip-rule="evenodd" d="M21.3561 59.2407L34.9628 58.5791V60.3788L21.3561 61.0404V59.2407Z" fill="#71BE44"/>
<path fill-rule="evenodd" clip-rule="evenodd" d="M48.9398 60.9768L56.5011 60.6096V61.6096L48.9398 61.9772V60.9768ZM48.9398 57.2568L56.5011 56.8896V57.8892L48.9398 58.2573V57.2568Z" fill="#71BE44"/>
</svg>
