<svg width="68" height="72" viewBox="0 0 68 72" fill="none" xmlns="http://www.w3.org/2000/svg">
<path d="M24.6721 10.2605L34.9557 10.2605L34.9557 8.45956L24.6721 8.45956L24.6721 10.2605Z" fill="#71BE44"/>
<path d="M53.1124 1.7439L55.1078 1.7439L55.1078 1.38659L53.1124 1.38659L53.1124 1.7439Z" fill="white"/>
<path d="M49.1209 4.4519L51.1162 4.4519L51.1162 4.09442L49.1209 4.09442L49.1209 4.4519Z" fill="white"/>
<path d="M49.1917 13.5044L54.3233 13.5044L54.3233 13.1471L49.1917 13.1471L49.1917 13.5044Z" fill="white"/>
<path d="M24.4598 11.2944L35.5786 11.2944L35.5786 11.0089L24.4598 11.0089L24.4598 11.2944Z" fill="white"/>
<path d="M24.4598 13.2886L35.5786 13.2886L35.5786 13.003L24.4598 13.003L24.4598 13.2886Z" fill="white"/>
<path d="M24.4598 15.2834L35.5786 15.2834L35.5786 14.9978L24.4598 14.9978L24.4598 15.2834Z" fill="white"/>
<path d="M23.3879 68.4001L36.2408 68.4001L36.2408 9.96976L23.3879 9.96976L23.3879 68.4001Z" fill="#71BE44"/>
<path d="M11.6995 68.4451L22.618 68.4451L22.618 47.422L11.6995 47.422L11.6995 68.4451Z" fill="#71BE44"/>
<path d="M19.2634 47.574L22.0932 47.574L22.0932 46.0556L19.2634 46.0556L19.2634 47.574Z" fill="#71BE44"/>
<path d="M47.9176 68.2397L55.7621 68.2397L55.7621 9.91821e-05L47.9176 9.84963e-05L47.9176 68.2397Z" fill="#71BE44"/>
<path d="M42.6485 68.2397L50.4948 68.2397L50.4948 17.0626L42.6485 17.0626L42.6485 68.2397Z" fill="#71BE44"/>
<path d="M37.156 68.2397L45.0023 68.2397L45.0023 40.1753L37.156 40.1753L37.156 68.2397Z" fill="#71BE44"/>
<path d="M44.6306 19.3894L47.838 19.3894L47.838 19.1655L44.6306 19.1655L44.6306 19.3894Z" fill="white"/>
<path d="M42.1359 24.2356L54.6805 24.2356L54.6805 24.0116L42.1359 24.0116L42.1359 24.2356Z" fill="white"/>
<path d="M45.7707 30.1177L54.6086 30.1177L54.6086 29.9607L45.7707 29.9607L45.7707 30.1177Z" fill="white"/>
<path d="M42.9201 35.9609L46.6979 35.9609L46.6979 35.8039L42.9201 35.8039L42.9201 35.9609Z" fill="white"/>
<path d="M48.9072 33.9644L52.685 33.9644L52.685 33.8074L48.9072 33.8074L48.9072 33.9644Z" fill="white"/>
<path d="M43.9893 40.8069L54.6805 40.8069L54.6805 40.6499L43.9893 40.6499L43.9893 40.8069Z" fill="white"/>
<path d="M37.3607 43.9424L43.0629 43.9424L43.0629 43.7854L37.3607 43.7854L37.3607 43.9424Z" fill="white"/>
<path d="M41.9218 47.1528L54.4674 47.1528L54.4674 46.9958L41.9218 46.9958L41.9218 47.1528Z" fill="white"/>
<path d="M37.6456 50.6445L50.1911 50.6445L50.1911 50.4875L37.6456 50.4875L37.6456 50.6445Z" fill="white"/>
<path d="M42.2788 56.7034L54.8243 56.7034L54.8243 56.5464L42.2788 56.5464L42.2788 56.7034Z" fill="white"/>
<path d="M24.4604 17.2778L35.5792 17.2778L35.5792 16.9921L24.4604 16.9921L24.4604 17.2778Z" fill="white"/>
<path d="M24.4604 19.2727L35.5792 19.2727L35.5792 18.987L24.4604 18.987L24.4604 19.2727Z" fill="white"/>
<path d="M24.4604 21.2673L35.5792 21.2673L35.5792 20.9816L24.4604 20.9816L24.4604 21.2673Z" fill="white"/>
<path d="M24.4604 23.2617L35.5792 23.2617L35.5792 22.9762L24.4604 22.9762L24.4604 23.2617Z" fill="white"/>
<path d="M24.4604 25.2563L35.5792 25.2563L35.5792 24.9708L24.4604 24.9708L24.4604 25.2563Z" fill="white"/>
<path d="M24.4604 27.2507L35.5792 27.2507L35.5792 26.9652L24.4604 26.9652L24.4604 27.2507Z" fill="white"/>
<path d="M24.4604 29.2456L35.5792 29.2456L35.5792 28.9601L24.4604 28.9601L24.4604 29.2456Z" fill="white"/>
<path d="M24.4604 31.2397L35.5792 31.2397L35.5792 30.9541L24.4604 30.9541L24.4604 31.2397Z" fill="white"/>
<path d="M24.4604 33.2346L35.5792 33.2346L35.5792 32.9489L24.4604 32.9489L24.4604 33.2346Z" fill="white"/>
<path d="M24.4604 35.229L35.5792 35.229L35.5792 34.9433L24.4604 34.9433L24.4604 35.229Z" fill="white"/>
<path d="M24.4604 37.2239L35.5792 37.2239L35.5792 36.9383L24.4604 36.9383L24.4604 37.2239Z" fill="white"/>
<path d="M24.4604 39.2183L35.5792 39.2183L35.5792 38.9327L24.4604 38.9327L24.4604 39.2183Z" fill="white"/>
<path d="M24.4604 41.2129L35.5792 41.2129L35.5792 40.9274L24.4604 40.9274L24.4604 41.2129Z" fill="white"/>
<path d="M24.4604 43.2073L35.5792 43.2073L35.5792 42.9218L24.4604 42.9218L24.4604 43.2073Z" fill="white"/>
<path d="M24.4604 45.2017L35.5792 45.2017L35.5792 44.916L24.4604 44.916L24.4604 45.2017Z" fill="white"/>
<path d="M24.4604 47.1965L35.5792 47.1965L35.5792 46.9108L24.4604 46.9108L24.4604 47.1965Z" fill="white"/>
<path d="M24.4604 49.1912L35.5792 49.1912L35.5792 48.9056L24.4604 48.9056L24.4604 49.1912Z" fill="white"/>
<path d="M24.4604 51.1858L35.5792 51.1858L35.5792 50.9001L24.4604 50.9001L24.4604 51.1858Z" fill="white"/>
<path d="M24.4604 53.1799L35.5792 53.1799L35.5792 52.8944L24.4604 52.8944L24.4604 53.1799Z" fill="white"/>
<path d="M24.4604 55.1748L35.5792 55.1748L35.5792 54.8893L24.4604 54.8893L24.4604 55.1748Z" fill="white"/>
<path d="M24.4604 57.1694L35.5792 57.1694L35.5792 56.8839L24.4604 56.8839L24.4604 57.1694Z" fill="white"/>
<path d="M-7.62939e-06 71.7783L67.5094 71.7783L67.5094 64.8219L-7.02124e-06 64.8219L-7.62939e-06 71.7783Z" fill="#71BE44"/>
</svg>
